<svg id="Ebene_1" data-name="Ebene 1" xmlns="http://www.w3.org/2000/svg" viewBox="0 0 256.66 283.05"><path d="M13.11,141.52A141.13,141.13,0,0,0,60.24,247V78.68H27.8A140.88,140.88,0,0,0,13.11,141.52Z" transform="translate(-13.11 0)"/><path d="M230.37,177.38l-40-64.75V229.25a65.72,65.72,0,0,1-35.64-55.84V78.68H98.59V271.5a141.6,141.6,0,0,0,165.25-39.95v0l-4.73-7.66Z" transform="translate(-13.11 0)"/><path d="M154.63,0A141.27,141.27,0,0,0,49.71,46.53H192l8.11,13.21,28,45.72,40.39,65.91,1.24,2V59.22A141.31,141.31,0,0,0,154.63,0Z" transform="translate(-13.11 0)"/></svg>